<svg width="512" height="512" viewBox="0 0 512 512" fill="none" xmlns="http://www.w3.org/2000/svg">
<path d="M326.1 231.9L278.6 307.4C276.657 310.093 274.294 312.457 271.6 314.4C265.099 318.936 257.07 320.725 249.258 319.378C241.445 318.031 234.479 313.657 229.871 307.206C225.263 300.755 223.386 292.747 224.645 284.921C225.905 277.094 230.201 270.079 236.6 265.4L312.1 217.9C313.817 216.704 315.858 216.062 317.95 216.062C320.042 216.062 322.084 216.704 323.8 217.9C325.956 219.456 327.408 221.802 327.839 224.426C328.27 227.049 327.645 229.736 326.1 231.9Z" fill="black"/>
<path d="M256 64C132.3 64 32.0002 164.2 32.0002 287.9C31.9243 342.629 51.9606 395.477 88.3002 436.4C89.4002 437.6 90.4002 438.8 91.5002 439.9C93.8666 442.462 96.7392 444.505 99.9361 445.898C103.133 447.292 106.585 448.007 110.072 447.998C113.56 447.989 117.007 447.255 120.197 445.844C123.386 444.433 126.248 442.375 128.6 439.8C144.815 422.178 164.51 408.112 186.438 398.491C208.367 388.869 232.053 383.902 256 383.902C279.947 383.902 303.633 388.869 325.562 398.491C347.491 408.112 367.185 422.178 383.4 439.8C385.753 442.375 388.614 444.433 391.804 445.844C394.993 447.255 398.441 447.989 401.928 447.998C405.416 448.007 408.867 447.292 412.064 445.898C415.261 444.505 418.134 442.462 420.5 439.9L423.7 436.4C460.04 395.477 480.076 342.629 480 287.9C480 164.2 379.7 64 256 64Z" stroke="black" stroke-width="32" stroke-linecap="round" stroke-linejoin="round"/>
<path d="M346.51 197.49L369.14 174.86M256 128V160V128ZM416 288H384H416ZM128 288H96H128ZM165.49 197.49L142.86 174.86L165.49 197.49Z" stroke="black" stroke-width="32" stroke-miterlimit="10" stroke-linecap="round"/>
</svg>
