<svg width="512" height="512" viewBox="0 0 512 512" fill="none" xmlns="http://www.w3.org/2000/svg">
<path d="M170.53 478.36L224 400M314.21 482.32L257.44 367.58L212.55 310.19C205.919 298.969 202.42 286.174 202.42 273.14V144H218.09C223.373 143.999 228.604 145.038 233.485 147.059C238.366 149.079 242.801 152.042 246.537 155.777C250.273 159.512 253.236 163.946 255.258 168.826C257.28 173.707 258.32 178.937 258.32 184.22V367.58L314.21 482.32ZM127.9 293.05V218.53C127.9 218.53 165.16 144 202.42 144L127.9 293.05ZM370.1 274.42L304 231L370.1 274.42Z" stroke="black" stroke-width="32" stroke-linecap="round" stroke-linejoin="round"/>
<path d="M258.32 106.74C278.898 106.74 295.58 90.0581 295.58 69.48C295.58 48.9019 278.898 32.22 258.32 32.22C237.741 32.22 221.06 48.9019 221.06 69.48C221.06 90.0581 237.741 106.74 258.32 106.74Z" stroke="black" stroke-width="32" stroke-linecap="round" stroke-linejoin="round"/>
</svg>
